<?xml version="1.0" encoding="utf-8"?><svg viewBox="0 0 60 60" xmlns="http://www.w3.org/2000/svg" xmlns:xlink="http://www.w3.org/1999/xlink"><style>:root>svg{display:none}:root>svg:target{display:block}</style><svg viewBox="0 0 13 11" id="arrow" xmlns="http://www.w3.org/2000/svg"><path d="M.172 6.073h10.444l-4.132 4.1.817.812L12.828 5.5 7.301.015l-.817.811 4.132 4.1H.172v1.147z"/></svg><svg viewBox="0 0 60 60" id="facebook-min" xmlns="http://www.w3.org/2000/svg"><path d="M60 29.901C60 13.387 46.569 0 30 0 13.431 0 0 13.387 0 29.901 0 44.826 10.97 57.196 25.313 59.44V38.545h-7.618V29.9h7.617v-6.587c0-7.494 4.48-11.634 11.332-11.634 3.282 0 6.715.584 6.715.584v7.359h-3.783c-3.726 0-4.889 2.305-4.889 4.67V29.9h8.32l-1.33 8.644h-6.99v20.894C49.03 57.196 60 44.826 60 29.901z"/></svg><svg viewBox="0 0 60 60" id="in-min" xmlns="http://www.w3.org/2000/svg"><path d="M30 0C13.434 0 0 13.434 0 30c0 16.566 13.434 30 30 30 16.566 0 30-13.434 30-30C60 13.434 46.566 0 30 0zm-8.718 45.352h-7.306V23.37h7.306v21.982zM17.63 20.369h-.047c-2.452 0-4.038-1.688-4.038-3.797 0-2.157 1.635-3.799 4.134-3.799 2.5 0 4.037 1.642 4.085 3.799 0 2.109-1.586 3.797-4.134 3.797zm29.999 24.983h-7.306v-11.76c0-2.955-1.058-4.97-3.701-4.97-2.019 0-3.22 1.359-3.749 2.671-.193.47-.24 1.126-.24 1.783v12.276h-7.306s.095-19.92 0-21.982h7.306v3.113c.97-1.498 2.708-3.629 6.584-3.629 4.807 0 8.412 3.142 8.412 9.893v12.605z"/></svg></svg>